<?xml version="1.0" encoding="UTF-8" standalone="no"?>
<!-- Created with Inkscape (http://www.inkscape.org/) -->

<svg
   xmlns:dc="http://purl.org/dc/elements/1.1/"
   xmlns:cc="http://creativecommons.org/ns#"
   xmlns:rdf="http://www.w3.org/1999/02/22-rdf-syntax-ns#"
   xmlns:svg="http://www.w3.org/2000/svg"
   xmlns="http://www.w3.org/2000/svg"
   xmlns:sodipodi="http://sodipodi.sourceforge.net/DTD/sodipodi-0.dtd"
   xmlns:inkscape="http://www.inkscape.org/namespaces/inkscape"
   width="27.046341mm"
   height="22.877895mm"
   viewBox="0 0 27.046341 22.877895"
   version="1.1"
   id="svg8"
   inkscape:version="0.92.4 (5da689c313, 2019-01-14)"
   sodipodi:docname="bublechat.svg">
  <defs
     id="defs2" />
  <sodipodi:namedview
     id="base"
     pagecolor="#ffffff"
     bordercolor="#666666"
     borderopacity="1.0"
     inkscape:pageopacity="0.0"
     inkscape:pageshadow="2"
     inkscape:zoom="5.6"
     inkscape:cx="59.820164"
     inkscape:cy="39.595056"
     inkscape:document-units="mm"
     inkscape:current-layer="g68"
     showgrid="false"
     inkscape:window-width="2560"
     inkscape:window-height="1057"
     inkscape:window-x="1912"
     inkscape:window-y="-8"
     inkscape:window-maximized="1" />
  <metadata
     id="metadata5">
    <rdf:RDF>
      <cc:Work
         rdf:about="">
        <dc:format>image/svg+xml</dc:format>
        <dc:type
           rdf:resource="http://purl.org/dc/dcmitype/StillImage" />
        <dc:title></dc:title>
      </cc:Work>
    </rdf:RDF>
  </metadata>
  <g
     inkscape:label="Capa 1"
     inkscape:groupmode="layer"
     id="layer1"
     transform="translate(-56.191576,-112.14612)">
    <g
       id="g68"
       transform="matrix(0.03527778,0,0,-0.03527778,14.481523,178.43406)"
       style="fill:#000000;stroke:none">
      <path
         id="path10"
         d="m 1473,1865 c -29,-8 -70,-23 -92,-34 -54,-28 -148,-117 -171,-162 -58,-112 -23,-216 88,-268 l 51,-24 -17,-26 c -8,-14 -31,-45 -50,-69 -61,-76 -2,-68 180,25 89,46 112,54 140,49 42,-8 141,10 188,34 56,29 91,65 77,80 -9,10 -9,11 1,6 7,-4 19,-2 27,4 18,15 20,34 3,24 -8,-4 -10,-3 -5,2 5,5 14,9 19,9 15,0 36,62 37,105 0,19 -8,53 -18,76 -21,46 -87,105 -108,97 -10,-4 -11,-8 -4,-13 7,-3 -4,-6 -23,-6 -26,1 -32,4 -24,14 7,8 7,12 -1,12 -6,0 -11,5 -11,10 0,6 11,3 24,-5 15,-10 26,-12 30,-6 4,6 -7,17 -24,26 -16,8 -30,12 -30,8 0,-5 -4,-3 -8,3 -12,18 -116,44 -174,43 -29,0 -77,-7 -105,-14 z m 247,-21 c 0,-3 -7,-12 -15,-21 -20,-19 -32,-10 -14,11 14,15 29,21 29,10 z m 30,-23 c 0,-12 -29,-35 -36,-28 -7,6 17,36 29,37 4,0 7,-4 7,-9 z m 125,-97 c -10,-8 -16,-17 -12,-21 4,-3 17,2 29,13 l 23,18 -22,-24 c -17,-18 -26,-21 -34,-13 -13,13 9,55 25,46 5,-3 1,-12 -9,-19 z m 2,-216 c 1,-10 -2,-16 -7,-13 -5,3 -13,-3 -19,-12 -6,-10 -11,-13 -11,-6 0,6 5,15 11,18 6,4 8,13 6,19 -3,7 0,13 7,13 7,0 13,-9 13,-19 z m -51,-83 c -11,-8 -25,-15 -30,-15 -6,1 0,7 14,15 32,19 40,18 16,0 z"
         inkscape:connector-curvature="0" />
      <path
         id="path28"
         d="m 1718,1343 c 7,-3 16,-2 19,1 4,3 -2,6 -13,5 -11,0 -14,-3 -6,-6 z"
         inkscape:connector-curvature="0" />
      <path
         id="path34"
         d="m 1785,1330 c -3,-5 -2,-10 4,-10 5,0 13,5 16,10 3,6 2,10 -4,10 -5,0 -13,-4 -16,-10 z"
         inkscape:connector-curvature="0" />
      <path
         id="path36"
         d="m 1450,1283 c -47,-24 -76,-41 -65,-37 68,23 119,47 138,64 27,25 28,26 -73,-27 z"
         inkscape:connector-curvature="0" />
      <path
         id="path38"
         d="m 1608,1323 c 7,-3 16,-2 19,1 4,3 -2,6 -13,5 -11,0 -14,-3 -6,-6 z"
         inkscape:connector-curvature="0" />
    </g>
    <rect
       style="opacity:0;fill:none;fill-opacity:1;fill-rule:nonzero;stroke:#000000;stroke-width:0.26458332;stroke-opacity:1"
       id="rect108"
       width="31.75"
       height="34.58482"
       x="16.158482"
       y="110.84672" />
    <rect
       style="opacity:0;fill:none;fill-opacity:1;fill-rule:nonzero;stroke:#000000;stroke-width:0.26458332;stroke-opacity:1"
       id="rect110"
       width="5.2916665"
       height="3.4962797"
       x="40.726936"
       y="138.25" />
  </g>
</svg>
