<?xml version="1.0" encoding="utf-8"?>
<!-- Generator: Adobe Illustrator 22.1.0, SVG Export Plug-In . SVG Version: 6.00 Build 0)  -->
<svg version="1.1" id="Layer_1" xmlns="http://www.w3.org/2000/svg" xmlns:xlink="http://www.w3.org/1999/xlink" x="0px" y="0px"
	 viewBox="0 0 512 512" style="enable-background:new 0 0 512 512;" xml:space="preserve">
<g>
	<path d="M476,318.2l-71.5,71.5c-6.7,6.7-17.5,6.7-24.1,0l-71.5-71.5c-6.7-6.7-6.7-17.5,0-24.1l7.7-7.7c6.8-6.8,17.9-6.6,24.5,0.3
		l28.7,30.4V187.8H236.4c-4.5,0-8.9-1.8-12.1-5L213,171.4c-10.7-10.7-3.1-29.1,12.1-29.1h173c9.4,0,17.1,7.6,17.1,17.1v157.8
		l28.7-30.4c6.6-7,17.7-7.1,24.5-0.3l7.7,7.7C482.7,300.8,482.7,311.6,476,318.2L476,318.2z M287.6,329.2c-3.2-3.2-7.5-5-12.1-5
		H142.3V194.8l28.7,30.4c6.6,7,17.7,7.1,24.5,0.3l7.7-7.7c6.7-6.7,6.7-17.5,0-24.1l-71.5-71.5c-6.7-6.7-17.5-6.7-24.1,0L36,193.8
		c-6.7,6.7-6.7,17.5,0,24.1l7.7,7.7c6.8,6.8,17.9,6.6,24.5-0.3l28.7-30.4v157.8c0,9.4,7.6,17.1,17.1,17.1h173
		c15.2,0,22.8-18.4,12.1-29.1L287.6,329.2L287.6,329.2z"/>
</g>
</svg>
