<?xml version="1.0" encoding="UTF-8" standalone="no"?>
<!-- Generator: Adobe Illustrator 27.8.1, SVG Export Plug-In . SVG Version: 6.00 Build 0)  -->

<svg
   xmlns:dc="http://purl.org/dc/elements/1.1/"
   xmlns:cc="http://creativecommons.org/ns#"
   xmlns:rdf="http://www.w3.org/1999/02/22-rdf-syntax-ns#"
   xmlns:svg="http://www.w3.org/2000/svg"
   xmlns="http://www.w3.org/2000/svg"
   xmlns:sodipodi="http://sodipodi.sourceforge.net/DTD/sodipodi-0.dtd"
   xmlns:inkscape="http://www.inkscape.org/namespaces/inkscape"
   version="1.1"
   id="Layer_1"
   x="0px"
   y="0px"
   viewBox="0 0 255.89999 255.8"
   xml:space="preserve"
   sodipodi:docname="SupraLogo-horz-onDark.svg"
   width="255.89999"
   height="255.8"
   inkscape:version="0.92.4 (5da689c313, 2019-01-14)"><metadata
   id="metadata26"><rdf:RDF><cc:Work
       rdf:about=""><dc:format>image/svg+xml</dc:format><dc:type
         rdf:resource="http://purl.org/dc/dcmitype/StillImage" /></cc:Work></rdf:RDF></metadata><defs
   id="defs24" /><sodipodi:namedview
   pagecolor="#ffffff"
   bordercolor="#666666"
   borderopacity="1"
   objecttolerance="10"
   gridtolerance="10"
   guidetolerance="10"
   inkscape:pageopacity="0"
   inkscape:pageshadow="2"
   inkscape:window-width="2560"
   inkscape:window-height="1057"
   id="namedview22"
   showgrid="false"
   inkscape:zoom="0.58166667"
   inkscape:cx="513.60516"
   inkscape:cy="12.772794"
   inkscape:window-x="1912"
   inkscape:window-y="-8"
   inkscape:window-maximized="1"
   inkscape:current-layer="g18" />
<style
   type="text/css"
   id="style2">
	.st0{fill:#DD1438;}
	.st1{fill:#FFFFFF;}
</style>
<g
   id="horz_light_bg_00000117645269063310871150000016721798876104775587_">
	<g
   id="g18">
		<path
   class="st0"
   d="M 255.9,127.9 C 255.9,198.5 198.6,255.8 128,255.8 57.4,255.8 0,198.5 0,127.9 0,57.3 57.3,0 128,0 198.7,0 255.9,57.3 255.9,127.9"
   id="path4"
   inkscape:connector-curvature="0"
   style="fill:#dd1438" />
		<path
   class="st1"
   d="M 201.3,66.4 C 198.2,58.6 193.1,51.7 187.3,46 181.2,40.3 174,35.8 166.5,32.7 c -5,-2 -10.2,-3.3 -15.6,-4 -19.1,-2.8 -39.2,3.1 -53.8,17.7 -16.8,16.8 -22.7,41.5 -15.3,64.4 v 0.2 0.1 c -4.7,2.9 -9,6.4 -12.7,10.4 -5.8,6.1 -10.6,13.3 -13.7,21.1 -3.1,7.9 -4.5,16 -4.5,24.6 0,8.1 1.8,16.6 5.1,24.2 3.1,7.8 8.2,14.7 14,20.4 6.1,5.7 13.3,10.2 20.8,13.3 7.5,3.1 15.6,4.5 23.9,4.5 -1.2,0 -2.3,0 -3.4,-0.1 17.3,0.9 34.8,-5.2 48,-18.4 16.9,-16.9 22.8,-41.4 15.5,-63.9 5,-3 9.6,-6.7 13.5,-10.8 5.8,-6.1 10.6,-13.3 13.7,-21.1 3.1,-7.9 4.5,-16 4.5,-24.6 0,-8.3 -1.8,-16.8 -5.2,-24.3 m -55.2,4.5 c -0.5,-2 -0.6,-4.1 -0.6,-6.1 2.3,0.4 4.5,1.1 6.7,2 3.1,1.3 5.7,3.4 7.8,5.7 2,2.5 3.8,5.1 4.8,8.2 1.1,3.1 1.4,6.1 1.4,9.2 -0.4,5.9 -2.9,11.4 -7,15.5 z m 14.9,39.4 c 0.4,-0.4 0.8,-0.8 1.2,-1.2 2.7,-2.8 4.4,-5.7 5.7,-9.2 1.4,-3.5 1.7,-7.2 1.7,-10.6 0,-3.8 -1,-7.1 -2.4,-10.2 -1.4,-3.1 -3.8,-5.8 -6.1,-8.2 -2.4,-2.1 -5.4,-4.2 -8.5,-5.2 -2.2,-0.8 -4.6,-1.1 -7.1,-1.3 0.1,-4 1.1,-7.9 3,-11.5 2.8,0.6 5.5,1.4 8,2.6 4.8,2.1 8.5,5.2 11.9,8.5 3.1,3.8 5.8,7.8 7.5,12.3 1.7,4.5 2.4,9.1 2.4,14 0,4.9 -1,9.6 -3.1,13.7 -1.7,4.4 -4.5,8.1 -7.8,11.2 -1.1,1 -2.3,1.9 -3.5,2.7 z m 4.7,12.2 c 1.8,-1.3 3.5,-2.7 5,-4.3 3.5,-3.8 6.5,-8.5 8.2,-13.3 2.1,-5.2 2.8,-10.3 2.8,-15.4 0,-5.1 -1.3,-10.2 -3.4,-15 -2,-4.5 -5.1,-8.9 -8.8,-12.3 -3.8,-3.4 -7.8,-6.1 -12.6,-7.8 -2.7,-0.9 -5.5,-1.6 -8.3,-1.9 1.2,-2.2 2.6,-4.2 4.4,-6 1.4,-1.4 2.9,-2.6 4.5,-3.6 1.3,0.5 2.5,1 3.7,1.5 5.7,2.4 11.2,6.1 15.6,10.9 4.5,4.5 7.8,10.3 10.2,16 2.4,6.1 3.4,12.6 3.4,18.7 -0.3,6.5 -1.7,12.7 -4.1,18.4 -2.4,5.4 -6.1,10.5 -10.6,15 -2.3,2.3 -4.9,4.4 -7.6,6.1 z m -66.6,91.8 c -1,-0.4 -2,-0.8 -3,-1.3 -5.7,-2.4 -11.2,-6.1 -15.6,-10.9 -4.5,-4.5 -7.8,-10.3 -10.2,-16 -2.4,-6.1 -3.4,-12.6 -3.4,-18.7 0.3,-6.5 1.7,-12.7 4.1,-18.4 2.4,-5.4 6.1,-10.5 10.6,-15 2.2,-2.2 4.5,-4.1 7,-5.7 l 2.8,7.2 c -1.6,1.2 -3.1,2.5 -4.5,3.9 -3.5,3.8 -6.5,8.5 -8.2,13.3 -2.1,5.1 -2.8,10.3 -2.8,15.3 0,5 1.3,10.2 3.4,15 2,4.5 5.1,8.9 8.8,12.3 3.8,3.4 7.8,6.1 12.6,7.8 2.4,0.9 4.9,1.4 7.5,1.8 -1.2,2.1 -2.6,4 -4.3,5.7 -1.6,1.5 -3.1,2.7 -4.8,3.7 m 1.9,-12.2 c -4.8,-2.1 -8.5,-5.2 -11.9,-8.5 -3.1,-3.8 -5.8,-7.8 -7.5,-12.3 -1.7,-4.5 -2.4,-9.1 -2.4,-14 0,-4.9 1,-9.6 3.1,-13.7 1.7,-4.4 4.5,-8.1 7.8,-11.2 0.9,-0.8 1.9,-1.6 3,-2.4 l 3,7.7 c -0.2,0.2 -0.5,0.4 -0.7,0.7 -2.7,2.8 -4.4,5.7 -5.7,9.2 -1.4,3.5 -1.7,7.2 -1.7,10.6 0,3.8 1,7.1 2.4,10.2 1.4,3.1 3.8,5.8 6.1,8.2 2.4,2.1 5.4,4.2 8.5,5.2 2,0.7 4.2,1.1 6.5,1.2 -0.2,4 -1.3,7.9 -3.2,11.4 -2.5,-0.5 -4.9,-1.2 -7.3,-2.3 m 9.9,-15.5 c 0.4,2 0.6,4.1 0.5,6.1 -2.1,-0.4 -4.1,-1 -6.1,-1.9 -3.1,-1.3 -5.7,-3.4 -7.8,-5.7 -2,-2.5 -3.8,-5.2 -4.8,-8.2 -1.1,-3.1 -1.4,-6.1 -1.4,-9.2 0.4,-5.6 2.7,-11 6.5,-15 z m -39.2,24 c -5.8,-5.8 -9.9,-12.6 -13,-20.1 -2.7,-7.1 -4.1,-15.4 -4.1,-23.2 0.4,-7.8 2.1,-15.6 5.2,-22.8 3.1,-7.2 7.8,-13.7 13.3,-19.1 3.3,-3.3 7,-6.1 11.1,-8.5 l 2.1,5.5 c -3.2,2.1 -6.2,4.5 -8.8,7.3 -4.8,5.1 -8.5,10.9 -10.9,17.3 -2.4,6.4 -3.4,13.3 -3.4,20.1 0.4,6.7 1.7,13.6 4.5,19.7 2.8,6.1 6.8,11.9 11.6,16.3 4.8,4.5 10.5,8.2 16.6,10.6 0.9,0.3 1.8,0.6 2.6,0.9 -4,2.4 -8.5,3.7 -13.3,3.8 -1.7,0 -3.4,-0.1 -5,-0.5 -3,-2.1 -5.9,-4.6 -8.5,-7.3 m 126,-97.5 c -3.1,7.2 -7.8,13.7 -13.3,19.1 -3.5,3.5 -7.5,6.5 -11.8,8.9 l -2.1,-5.4 c 3.5,-2.2 6.7,-4.7 9.5,-7.7 4.8,-5.1 8.5,-10.9 10.9,-17.3 2.4,-6.4 3.4,-13.3 3.4,-20.1 C 193.9,83.9 192.6,77 189.8,70.9 187,64.8 183,59 178.2,54.6 173.4,50.1 167.7,46.4 161.6,44 c -1.1,-0.4 -2.3,-0.8 -3.5,-1.2 5.8,-3.5 12.7,-4.5 19.1,-3.1 3.1,2.2 6,4.7 8.5,7.4 5.8,5.8 9.9,12.6 13,20.1 2.7,7.1 4.1,15.4 4.1,23.2 -0.3,7.7 -2,15.6 -5.1,22.7"
   id="path6"
   inkscape:connector-curvature="0"
   style="fill:#ffffff" />
		<path
   class="st1"
   d="m 338.1,211.6 c -12.7,-3.7 -22.9,-8.5 -30.6,-14.4 l 13.5,-30 c 7.4,5.4 16.1,9.7 26.3,13 10.1,3.3 20.3,4.9 30.4,4.9 11.3,0 19.6,-1.7 25,-5 5.4,-3.4 8.1,-7.8 8.1,-13.4 0,-4.1 -1.6,-7.5 -4.8,-10.2 -3.2,-2.7 -7.3,-4.9 -12.3,-6.5 -5,-1.6 -11.7,-3.4 -20.3,-5.4 -13.1,-3.1 -23.8,-6.2 -32.2,-9.3 -8.4,-3.1 -15.5,-8.1 -21.5,-15 -6,-6.9 -9,-16 -9,-27.5 0,-10 2.7,-19 8.1,-27.1 5.4,-8.1 13.5,-14.5 24.4,-19.3 10.9,-4.7 24.2,-7.1 39.9,-7.1 11,0 21.7,1.3 32.2,3.9 10.5,2.6 19.6,6.4 27.5,11.3 l -12.3,30.2 c -15.9,-9 -31.8,-13.5 -47.6,-13.5 -11.1,0 -19.4,1.8 -24.7,5.4 -5.3,3.6 -8,8.4 -8,14.2 0,5.9 3.1,10.3 9.2,13.1 6.1,2.9 15.5,5.7 28.1,8.5 13.1,3.1 23.8,6.2 32.2,9.3 8.4,3.1 15.5,8 21.5,14.7 6,6.7 9,15.8 9,27.3 0,9.8 -2.7,18.8 -8.2,26.9 -5.5,8.1 -13.7,14.5 -24.7,19.3 -11,4.7 -24.3,7.1 -40,7.1 -13.4,0.1 -26.5,-1.7 -39.2,-5.4"
   id="path8"
   inkscape:connector-curvature="0"
   style="fill:#ffffff" />
		<path
   class="st1"
   d="m 497.8,196.8 c -13.7,-13.6 -20.5,-33 -20.5,-58.2 V 42.3 h 39.8 v 94.8 c 0,30.8 12.8,46.2 38.3,46.2 12.4,0 21.9,-3.7 28.5,-11.2 6.5,-7.5 9.8,-19.1 9.8,-35 V 42.3 H 633 v 96.2 c 0,25.2 -6.8,44.6 -20.5,58.2 -13.7,13.6 -32.8,20.4 -57.3,20.4 -24.6,0 -43.8,-6.8 -57.4,-20.3"
   id="path10"
   inkscape:connector-curvature="0"
   style="fill:#ffffff" />
		<path
   class="st1"
   d="m 777,49.9 c 11.2,5.1 19.9,12.3 25.9,21.6 6.1,9.3 9.1,20.4 9.1,33.1 0,12.6 -3,23.6 -9.1,33 -6.1,9.4 -14.7,16.6 -25.9,21.6 -11.2,5 -24.4,7.5 -39.7,7.5 h -34.6 v 47.4 H 662.9 V 42.3 h 74.4 c 15.2,0 28.4,2.6 39.7,7.6 m -14.6,76.7 c 6.2,-5.2 9.3,-12.5 9.3,-22 0,-9.6 -3.1,-17.1 -9.3,-22.2 -6.2,-5.2 -15.3,-7.7 -27.3,-7.7 h -32.4 v 59.7 h 32.4 c 11.9,0 21,-2.6 27.3,-7.8"
   id="path12"
   inkscape:connector-curvature="0"
   style="fill:#ffffff" />
		<path
   class="st1"
   d="m 950.2,214.2 -33.1,-47.9 h -2 -34.6 v 47.9 H 840.7 V 42.3 h 74.4 c 15.2,0 28.4,2.5 39.7,7.6 11.2,5.1 19.9,12.3 25.9,21.6 6.1,9.3 9.1,20.4 9.1,33.1 0,12.8 -3.1,23.8 -9.2,33 -6.1,9.3 -14.9,16.3 -26.1,21.2 L 993,214 H 950.2 Z M 940.1,82.5 c -6.2,-5.2 -15.3,-7.7 -27.3,-7.7 h -32.4 v 59.9 h 32.4 c 11.9,0 21,-2.6 27.3,-7.9 6.2,-5.2 9.3,-12.6 9.3,-22.1 0.1,-9.7 -3,-17.1 -9.3,-22.2"
   id="path14"
   inkscape:connector-curvature="0"
   style="fill:#ffffff" />
		<path
   class="st1"
   d="m 1143,177.4 h -79.8 l -15.2,36.8 h -40.7 l 76.6,-171.9 h 39.3 l 76.8,171.9 h -41.7 z m -12.5,-30.2 -27.3,-65.8 -27.3,65.8 z"
   id="path16"
   inkscape:connector-curvature="0"
   style="fill:#ffffff" />
	</g>
</g>
</svg>